<?xml version="1.0" encoding="UTF-8" standalone="no"?>
<svg xmlns="http://www.w3.org/2000/svg" width="9" height="9">
<g style="fill-opacity:1;stroke:none">
<path d="m 2,0 2,0 0,1 1,0 0,-1 2,0 0,1 1,0 0,1 1,0 0,3 -1,0 0,1 -1,0 0,1 -1,0 0,1 -1,0 0,1 -1,0 0,-1 -1,0 0,-1 -1,0 0,-1 -1,0 0,-1 -1,0 0,-3 1,0 0,-1 1,0 z" style="fill:#000"/>
<path d="M 2,1 4,1 4,2 5,2 5,1 7,1 7,2 8,2 8,5 7,5 7,6 6,6 6,7 5,7 5,8 4,8 4,7 3,7 3,6 2,6 2,5 1,5 1,2 2,2 z" style="fill:#3b1313"/>
<path d="M 2,2 2,5 3,5 3,6 4,6 4,7 5,7 5,6 6,6 6,5 7,5 7,2 5,2 5,3 4,3 4,2 z" style="fill:#2b2b2b"/>
<path d="M 8,4 8,5 7,5 7,6 6,6 6,5 7,5 7,4 z" style="fill:#391c1c"/>
<path d="M 6,6 6,7 5,7 5,8 4,8 4,7 5,7 5,6 z" style="fill:#471c1c"/>
<path d="M 4,7 4,6 3,6 3,5 2,5 2,4 1,4 1,5 2,5 2,6 3,6 3,7 z" style="fill:#2a0e0e"/>
<path d="M 2,4 2,3 1,3 1,4 z" style="fill:#2f0f0f"/>
<path d="M 3,3 3,2 2,2 2,3 z" style="fill:#cbcbcb"/>
<path d="M 4,5 4,4 3,4 3,5 zM 6,4 6,3 5,3 5,4 z" style="fill:#272727"/>
<path d="M 8,4 8,3 7,3 7,4 z" style="fill:#1d1d1d"/>
<path d="M 7,4 7,5 6,5 6,6 5,6 5,7 4,7 4,6 3,6 3,5 2,5 2,4 3,4 3,5 4,5 4,6 5,6 5,5 6,5 6,4 z" style="fill:#202020"/>
</g>
</svg>